<svg xmlns="http://www.w3.org/2000/svg" xmlns:xlink="http://www.w3.org/1999/xlink" viewBox="0 0 1312 738"><defs><style>.cls-1,.cls-2,.cls-25,.cls-28,.cls-36,.cls-37,.cls-38,.cls-6{fill:none;}.cls-2{stroke:#0f93bb;stroke-width:3px;}.cls-2,.cls-25,.cls-28,.cls-36,.cls-37,.cls-38,.cls-6{stroke-miterlimit:10;}.cls-3{fill:#17b3e8;}.cls-4{clip-path:url(#clip-path);}.cls-5{clip-path:url(#clip-path-2);}.cls-6{stroke:#c4e7f1;stroke-width:1.21px;}.cls-7{clip-path:url(#clip-path-3);}.cls-8{opacity:0.4;fill:url(#New_Pattern_2);}.cls-9{fill:#fb7541;}.cls-10{fill:#434548;}.cls-11{fill:#83c83e;}.cls-12{fill:#0f3b60;}.cls-13{fill:#05556e;}.cls-14{fill:#f7976b;}.cls-15{fill:#fa4e0e;}.cls-16{fill:#e6f4d8;}.cls-17{fill:#6aa42f;}.cls-18{fill:#ffa407;}.cls-19{fill:#ffb73a;}.cls-20{fill:#f2f2f2;}.cls-21{fill:#d2d3d4;}.cls-22{fill:#c48d2c;}.cls-23{fill:#c46a29;}.cls-24{fill:#fff;}.cls-25,.cls-28,.cls-36,.cls-37,.cls-38{stroke:#000;}.cls-25{stroke-width:0.83px;}.cls-26{fill:#d79a2c;}.cls-27{fill:#fab337;}.cls-28{stroke-width:2.48px;}.cls-29{fill:#343841;}.cls-30{fill:#0f93bb;}.cls-31{fill:#03556e;}.cls-32{fill:#e07526;}.cls-33{fill:#c76928;}.cls-34{fill:#45474d;}.cls-35{fill:#f3f3f3;}.cls-36{stroke-width:0.98px;}.cls-37{stroke-width:1.01px;}.cls-38{stroke-width:0.75px;}.cls-39{clip-path:url(#clip-path-4);}.cls-40{fill:#0774ba;}.cls-41{fill:#13b5ea;}</style><clipPath id="clip-path"><rect class="cls-1" x="1612.86" width="1312" height="738"/></clipPath><clipPath id="clip-path-2"><polyline class="cls-1" points="3414.14 741.19 3411.28 589.55 3078.18 590.53 2693.18 40.82 2685.18 29.39 1072.09 29.39"/></clipPath><clipPath id="clip-path-3"><rect class="cls-1" width="1312" height="738"/></clipPath><pattern id="New_Pattern_2" data-name="New Pattern 2" width="180.36" height="142.97" patternTransform="matrix(0.61, 0, 0, -0.6, 4761.79, 13586.03)" patternUnits="userSpaceOnUse" viewBox="0 0 180.36 142.97"><rect class="cls-1" width="180.36" height="142.97"/><rect class="cls-2" x="98.06" y="129.47" width="179.6" height="70.73"/><rect class="cls-2" x="-82.3" y="129.47" width="179.6" height="70.73"/><rect class="cls-2" x="7.88" y="57.99" width="179.6" height="70.73"/><rect class="cls-2" x="-172.48" y="57.99" width="179.6" height="70.73"/><rect class="cls-2" x="98.06" y="-13.5" width="179.6" height="70.73"/><rect class="cls-2" x="-82.3" y="-13.5" width="179.6" height="70.73"/></pattern><clipPath id="clip-path-4"><rect class="cls-1" x="-1572.63" width="1312" height="738"/></clipPath></defs><g id="Pale_Blue_BG" data-name="Pale Blue BG"><rect class="cls-3" width="1312" height="738"/></g><g id="illustration"><g class="cls-4"><rect class="cls-1" x="46.05" y="54.96" width="2874.36" height="669.16"/><g class="cls-5"><path class="cls-6" d="M1056.81,107.58q312,0,624.06,4.41c6,.08,12.34.24,17.4,3.84s8.17,11.76,4.66,17.32c-2.78,4.49-8.25,5.31-13.07,5.72a4468.46,4468.46,0,0,1-624,13.64c-9.8-.49-22.63,1.56-24.51,12.42-1.15,6.62,3.18,13.16,8.5,16.1s11.52,3.18,17.48,3.35L1306,190.51"/><path class="cls-6" d="M1026.83,296.31q533.61,16.8,1067.22,33.5c19.61.66,39.7,1.39,59.48,3.6s17.89,35.37-2,34.88q-366.08-9.56-732.07-19c-42.33-1.06-84.81-2.21-127.22-1.47-16.58.24-16.83,28.18-.24,28.84,288.74,12.34,453.29,24.59,742,36.93"/><path class="cls-6" d="M1025,336.59a447.65,447.65,0,0,1,174.84,20.1c8.83,2.86,19.61,9.07,18.55,19.37s-12.91,13.72-22.14,14.21A744.83,744.83,0,0,1,1004,376.38"/><path class="cls-6" d="M1135.25,367.72c-26.07-1.06-52-2.12-78.11-3.27"/></g><rect class="cls-1" x="46.05" y="54.96" width="2874.36" height="669.16"/></g><g class="cls-7"><rect class="cls-3" x="-9.4" width="1486.44" height="742.39"/><polygon class="cls-8" points="1478.98 741.76 -10.17 741.76 -12.11 0.99 1478.98 0.64 1478.98 741.76"/><polygon class="cls-9" points="265.69 602.22 286.27 579.01 353.2 643.65 321.09 679.07 265.69 602.22"/><path class="cls-10" d="M293.07,435.4a31.53,31.53,0,1,1-10.17,43.44,31.53,31.53,0,0,1,10.17-43.44Z"/><polygon class="cls-11" points="324.85 327.84 360.99 380.99 207.91 543.24 165.35 501.32 324.85 327.84"/><path class="cls-12" d="M411.47,745.9H320.12c0-.07-.06-.16-.08-.23-11-32.29-18.69-66.28-20.56-96.58-1.23-19.78,0-38,4.36-53.11a83.93,83.93,0,0,1,2.85-8.33V557.41l34.2-.18,21.84-.12s11,.76,13.6,11.09a19.84,19.84,0,0,1,.51,5.77s.56,1.28,1.54,3.89c1.38,3.64,3.59,9.88,6.29,18.88C392.4,622.55,404.08,671,411.47,745.9Z"/><path class="cls-13" d="M386.78,576.77a122.35,122.35,0,0,1-2.1,20c-6.93,39.14-29.7,99.54-51.05,149.16h-98.3l26-141.48,4.77-25.93.49-2.66.36-2,.66-3.59,8.31-.16,2.68-.05,1.51,0,2,0,14.8-.28,3.28-.07,6.5-.12,17.29-.33,52.36-1,9.8-.19A46.8,46.8,0,0,1,386.78,576.77Z"/><path class="cls-14" d="M323.57,288.53,336.93,284a17.35,17.35,0,0,0,11.54-18.8l-4.65-33.42H289.6l10.81,44.1a17.9,17.9,0,0,0,23.16,12.66Z"/><path class="cls-14" d="M289.93,210.16a49.48,49.48,0,0,0,3-16.26V190l-2.35-8.8a21,21,0,0,1,20.87-23.73h21.38c19.87.1,13.42,64.86,13.42,68.26,0,15.75-10.72,23-21.58,23-9.68,0-38.43,21-35.11-20.72.26-3.4-.74-14.8.41-17.83Z"/><path class="cls-15" d="M331.63,215.16h15.2c-.28,5.77-.69,9.82-.63,10.6.67,9.72-1.54,21-10.66,24.41-12.48,4.68-31,9.8-40.09,5.54-7.24-3.41-6.65-12.93-6.05-16.51,32.53,7.31,42.23-24,42.23-24Z"/><polygon class="cls-14" points="291.79 159.82 301.76 170.88 292.12 213.22 284.51 213.22 291.79 159.82"/><path class="cls-15" d="M303.17,146.47c-5.77,1.43-9.82.61-12.63-1-3.05-1.78-6.22.8-6.28,4.34-.22,11.13,7.12,17.88,17.5,15.57,3.33,8.86,19.72,3.23,27.68,6.65,7.73,3.32,1.13,34.38,1.07,37.63-.19,4.23,14,15.36,16.63,15.49,0,0,4.17-36.32,5.4-52.61.76-9.78-4-17.92-12.36-23-5.44-3.29-26.62-5.62-37-3Z"/><path class="cls-15" d="M325.37,209.12c0,6.36,2.44,11.53,5.41,11.53s5.44-5.17,5.44-11.54c0-10.18-2.42-11.53-5.44-11.53s-5.41,5.17-5.41,11.54Z"/><path class="cls-16" d="M389.2,576c-10.31,5.75-128.56.7-155,3.32,5.89,8.06,19.93-142.78,65.1-298.63a6.79,6.79,0,0,1,7.82-6.79l42.21-16.66c1.13.18,22.43,13.46,26.54,26.56Z"/><path class="cls-17" d="M307.3,273.82l12.16,31,32.1-8.84-9-26.29a13.56,13.56,0,0,0-12.81-9.13h-9.13a13.27,13.27,0,0,0-13.28,13.28Z"/><path class="cls-11" d="M372.7,304.27a31.54,31.54,0,1,1-40.48-18.75,31.55,31.55,0,0,1,40.48,18.75Z"/><path class="cls-11" d="M431.26,463.22a31.53,31.53,0,1,1-40.66-18.3,31.55,31.55,0,0,1,40.66,18.3Z"/><polygon class="cls-11" points="431.15 462.92 372.18 485.28 313.03 324.77 372 302.4 431.15 462.92"/><rect class="cls-18" x="80.83" y="406.34" width="186.23" height="186.23" transform="matrix(0.15, -0.99, 0.99, 0.15, -346.37, 594.24)"/><polygon class="cls-19" points="96.31 393.09 203.12 409.77 67.57 577.08 96.31 393.09"/><path class="cls-11" d="M377.57,454.8a31.53,31.53,0,1,1-1.19,44.56,31.53,31.53,0,0,1,1.19-44.56Z"/><path class="cls-11" d="M377.32,455l43.4,45.77L307.51,580.84,274,545.65c-.06-10,7.69-15.65,14.75-13.16Z"/><polygon class="cls-14" points="238.07 595.69 247.64 607.99 258.2 606.78 289.11 583.68 273.85 560.41 238.07 595.69"/><path class="cls-14" d="M234.77,610.65l24.8-4.64L258,590.42l-35.72,7a2,2,0,0,0-1.19,3.21l5.18,6.73a8.8,8.8,0,0,0,8.53,3.25Z"/><path class="cls-14" d="M243.35,576.42c4.48-1.35,9.89-1.72,13.57.15L276,575.11l0-15.63-26.15,2.76a11.4,11.4,0,0,0-10.19,11.32,3,3,0,0,0,3.76,2.86Z"/><path class="cls-14" d="M268.73,561.25c-4,3-5,8.41-2.17,12.09s8.26,4.24,12.23,1.25,5-8.43,2.17-12.13-8.26-4.2-12.23-1.21Z"/><polygon class="cls-14" points="286.07 550.88 302.94 573.28 288.99 583.78 272.11 561.38 286.07 550.88"/><rect class="cls-20" x="521.7" y="106.02" width="911.38" height="634.88"/><rect class="cls-21" x="521.16" y="604.59" width="911.91" height="136.32"/><rect class="cls-22" x="1271.39" y="535.4" width="103.97" height="79.98" transform="translate(-1.36 3.14) rotate(-0.14)"/><rect class="cls-22" x="986.05" y="308.09" width="75.37" height="57.98" transform="translate(-19.43 66.05) rotate(-3.66)"/><polygon class="cls-23" points="1029.15 330.92 1023.21 329.26 1017.58 331.66 1016.1 308.52 1027.67 307.78 1029.15 330.92"/><rect class="cls-24" x="989.59" y="349.91" width="21.62" height="15" transform="translate(2020.88 652.64) rotate(176.48)"/><line class="cls-25" x1="993.84" y1="363.67" x2="993.1" y2="351.7"/><line class="cls-25" x1="1001.02" y1="363.22" x2="1000.28" y2="351.26"/><line class="cls-25" x1="996.1" y1="363.53" x2="995.37" y2="351.56"/><line class="cls-25" x1="1004.11" y1="363.03" x2="1003.37" y2="351.07"/><line class="cls-25" x1="999.24" y1="363.33" x2="998.5" y2="351.37"/><line class="cls-25" x1="1008.2" y1="362.78" x2="1007.46" y2="350.82"/><line class="cls-25" x1="1009.9" y1="362.68" x2="1009.16" y2="350.71"/><line class="cls-25" x1="991.45" y1="363.81" x2="990.71" y2="351.85"/><line class="cls-25" x1="1002.26" y1="363.15" x2="1001.52" y2="351.18"/><rect class="cls-22" x="1262.53" y="184.4" width="75.37" height="57.98" transform="translate(-11.54 89.29) rotate(-3.92)"/><polygon class="cls-23" points="1305.61 207.21 1299.66 205.58 1294.04 208 1292.45 184.86 1304.02 184.07 1305.61 207.21"/><rect class="cls-24" x="1266.17" y="226.33" width="21.62" height="15" transform="translate(2566.59 382.96) rotate(176.22)"/><line class="cls-25" x1="1270.45" y1="240.11" x2="1269.66" y2="228.15"/><line class="cls-25" x1="1277.62" y1="239.64" x2="1276.83" y2="227.67"/><line class="cls-25" x1="1272.71" y1="239.96" x2="1271.92" y2="228"/><line class="cls-25" x1="1280.71" y1="239.43" x2="1279.92" y2="227.47"/><line class="cls-25" x1="1275.84" y1="239.76" x2="1275.05" y2="227.79"/><line class="cls-25" x1="1284.8" y1="239.16" x2="1284.01" y2="227.2"/><line class="cls-25" x1="1286.5" y1="239.05" x2="1285.71" y2="227.09"/><line class="cls-25" x1="1268.05" y1="240.27" x2="1267.26" y2="228.31"/><line class="cls-25" x1="1278.86" y1="239.56" x2="1278.07" y2="227.59"/><rect class="cls-26" x="1095.16" y="535.4" width="103.97" height="79.98" transform="translate(-1.36 2.72) rotate(-0.14)"/><polygon class="cls-23" points="1155.13 567.38 1147.09 564.59 1139.13 567.41 1139.05 535.42 1155.05 535.38 1155.13 567.38"/><rect class="cls-24" x="1098.38" y="592.94" width="29.83" height="20.69"/><line class="cls-25" x1="1112.94" y1="595.23" x2="1112.94" y2="611.77"/><line class="cls-25" x1="1120.7" y1="595.23" x2="1120.7" y2="611.77"/><line class="cls-25" x1="1124.54" y1="595.23" x2="1124.54" y2="611.77"/><line class="cls-25" x1="1119.73" y1="595.23" x2="1119.73" y2="611.77"/><line class="cls-25" x1="1106.8" y1="595.23" x2="1106.8" y2="611.77"/><line class="cls-25" x1="1104.9" y1="595.23" x2="1104.9" y2="611.77"/><line class="cls-25" x1="1102.05" y1="595.23" x2="1102.05" y2="611.77"/><line class="cls-25" x1="1100.67" y1="595.23" x2="1100.67" y2="611.77"/><line class="cls-25" x1="1126.17" y1="595.23" x2="1126.17" y2="611.77"/><line class="cls-25" x1="1111.22" y1="595.23" x2="1111.22" y2="611.77"/><line class="cls-25" x1="1117.9" y1="595.23" x2="1117.9" y2="611.77"/><rect class="cls-26" x="1322.73" y="340.69" width="72.39" height="94.11" transform="translate(967.97 1745.75) rotate(-89.86)"/><rect class="cls-27" x="1083.5" y="448.35" width="103.97" height="79.98" transform="translate(-39.75 105.41) rotate(-5.22)"/><polygon class="cls-23" points="1142.72 479.64 1134.47 477.57 1126.79 481.1 1123.88 449.24 1139.81 447.78 1142.72 479.64"/><rect class="cls-24" x="1088.95" y="504.56" width="29.83" height="20.69" transform="matrix(0.96, -0.27, 0.27, 0.96, -97.44, 313.64)"/><line class="cls-25" x1="1101.37" y1="507.23" x2="1105.79" y2="523.17"/><line class="cls-25" x1="1108.84" y1="505.16" x2="1113.26" y2="521.09"/><line class="cls-25" x1="1112.55" y1="504.13" x2="1116.97" y2="520.07"/><line class="cls-25" x1="1107.92" y1="505.41" x2="1112.33" y2="521.35"/><line class="cls-25" x1="1095.46" y1="508.87" x2="1099.87" y2="524.81"/><line class="cls-25" x1="1093.62" y1="509.38" x2="1098.04" y2="525.32"/><line class="cls-25" x1="1090.88" y1="510.14" x2="1095.3" y2="526.08"/><line class="cls-25" x1="1089.54" y1="510.51" x2="1093.96" y2="526.45"/><line class="cls-25" x1="1114.12" y1="503.7" x2="1118.54" y2="519.63"/><line class="cls-25" x1="1099.72" y1="507.69" x2="1104.13" y2="523.63"/><line class="cls-25" x1="1106.15" y1="505.91" x2="1110.57" y2="521.84"/><rect class="cls-27" x="1240.13" y="343.15" width="80.17" height="79.98" transform="translate(-0.91 3.04) rotate(-0.14)"/><polygon class="cls-23" points="1288.19 375.13 1280.15 372.34 1272.19 375.16 1272.12 343.17 1288.11 343.13 1288.19 375.13"/><rect class="cls-26" x="1130.79" y="352.96" width="94.11" height="72.39" transform="matrix(1, 0, 0, 1, -0.92, 2.8)"/><polygon class="cls-23" points="1185.07 381.89 1177.79 379.37 1170.59 381.93 1170.52 352.97 1185 352.94 1185.07 381.89"/><rect class="cls-24" x="1133.71" y="403.33" width="27" height="18.73" transform="translate(2294.41 825.39) rotate(180)"/><line class="cls-25" x1="1138.55" y1="419.99" x2="1138.55" y2="405.02"/><line class="cls-25" x1="1147.53" y1="419.99" x2="1147.53" y2="405.02"/><line class="cls-25" x1="1141.38" y1="419.99" x2="1141.38" y2="405.02"/><line class="cls-25" x1="1151.4" y1="419.99" x2="1151.4" y2="405.02"/><line class="cls-25" x1="1145.3" y1="419.99" x2="1145.3" y2="405.02"/><line class="cls-25" x1="1156.52" y1="419.99" x2="1156.52" y2="405.02"/><line class="cls-25" x1="1158.64" y1="419.99" x2="1158.64" y2="405.02"/><line class="cls-25" x1="1135.56" y1="419.99" x2="1135.56" y2="405.02"/><line class="cls-25" x1="1149.09" y1="419.99" x2="1149.09" y2="405.02"/><rect class="cls-26" x="1217.62" y="271.06" width="94.11" height="72.39" transform="translate(-0.73 3) rotate(-0.14)"/><polygon class="cls-23" points="1271.9 300 1264.63 297.48 1257.42 300.04 1257.35 271.08 1271.83 271.04 1271.9 300"/><rect class="cls-24" x="1220.54" y="321.44" width="27" height="18.73" transform="translate(2468.09 661.61) rotate(180)"/><line class="cls-25" x1="1225.39" y1="338.1" x2="1225.39" y2="323.13"/><line class="cls-25" x1="1234.37" y1="338.1" x2="1234.37" y2="323.13"/><line class="cls-25" x1="1228.22" y1="338.1" x2="1228.22" y2="323.13"/><line class="cls-25" x1="1238.23" y1="338.1" x2="1238.23" y2="323.13"/><line class="cls-25" x1="1232.14" y1="338.1" x2="1232.14" y2="323.13"/><line class="cls-25" x1="1243.35" y1="338.1" x2="1243.35" y2="323.13"/><line class="cls-25" x1="1245.47" y1="338.1" x2="1245.47" y2="323.13"/><line class="cls-25" x1="1222.39" y1="338.1" x2="1222.39" y2="323.13"/><line class="cls-25" x1="1235.92" y1="338.1" x2="1235.92" y2="323.13"/><rect class="cls-22" x="968.4" y="441.73" width="75.37" height="57.98" transform="translate(-1.11 2.39) rotate(-0.14)"/><polygon class="cls-23" points="1011.87 464.91 1006.04 462.88 1000.27 464.94 1000.22 441.74 1011.81 441.71 1011.87 464.91"/><rect class="cls-24" x="970.73" y="482.08" width="21.62" height="15" transform="translate(1963.09 979.15) rotate(180)"/><line class="cls-25" x1="974.61" y1="495.42" x2="974.61" y2="483.43"/><line class="cls-25" x1="981.81" y1="495.42" x2="981.81" y2="483.43"/><line class="cls-25" x1="976.88" y1="495.42" x2="976.88" y2="483.43"/><line class="cls-25" x1="984.9" y1="495.42" x2="984.9" y2="483.43"/><line class="cls-25" x1="980.02" y1="495.42" x2="980.02" y2="483.43"/><line class="cls-25" x1="989" y1="495.42" x2="989" y2="483.43"/><line class="cls-25" x1="990.7" y1="495.42" x2="990.7" y2="483.43"/><line class="cls-25" x1="972.22" y1="495.42" x2="972.22" y2="483.43"/><line class="cls-25" x1="983.05" y1="495.42" x2="983.05" y2="483.43"/><rect class="cls-26" x="983.22" y="365.27" width="75.37" height="57.98" transform="translate(-0.93 2.42) rotate(-0.14)"/><polygon class="cls-23" points="1026.69 388.45 1020.87 386.43 1015.1 388.48 1015.04 365.29 1026.64 365.26 1026.69 388.45"/><rect class="cls-24" x="985.56" y="405.62" width="21.62" height="15" transform="translate(1992.74 826.24) rotate(180)"/><line class="cls-25" x1="989.44" y1="418.96" x2="989.44" y2="406.97"/><line class="cls-25" x1="996.63" y1="418.96" x2="996.63" y2="406.97"/><line class="cls-25" x1="991.71" y1="418.96" x2="991.71" y2="406.97"/><line class="cls-25" x1="999.73" y1="418.96" x2="999.73" y2="406.97"/><line class="cls-25" x1="994.85" y1="418.96" x2="994.85" y2="406.97"/><line class="cls-25" x1="1003.83" y1="418.96" x2="1003.83" y2="406.97"/><line class="cls-25" x1="1005.53" y1="418.96" x2="1005.53" y2="406.97"/><line class="cls-25" x1="987.04" y1="418.96" x2="987.04" y2="406.97"/><line class="cls-25" x1="997.88" y1="418.96" x2="997.88" y2="406.97"/><rect class="cls-26" x="982.21" y="172.2" width="57.98" height="75.37" transform="translate(798.92 1220.59) rotate(-89.86)"/><polygon class="cls-23" points="1005.42 204.07 1011.25 202.05 1017.02 204.1 1017.07 180.91 1005.48 180.88 1005.42 204.07"/><rect class="cls-24" x="1024.93" y="221.25" width="21.62" height="15"/><line class="cls-25" x1="1042.67" y1="234.59" x2="1042.67" y2="222.6"/><line class="cls-25" x1="1035.48" y1="234.59" x2="1035.48" y2="222.6"/><line class="cls-25" x1="1040.41" y1="234.59" x2="1040.41" y2="222.6"/><line class="cls-25" x1="1032.39" y1="234.59" x2="1032.39" y2="222.6"/><line class="cls-25" x1="1037.27" y1="234.59" x2="1037.27" y2="222.6"/><line class="cls-25" x1="1028.29" y1="234.59" x2="1028.29" y2="222.6"/><line class="cls-25" x1="1026.59" y1="234.59" x2="1026.59" y2="222.6"/><line class="cls-25" x1="1045.07" y1="234.59" x2="1045.07" y2="222.6"/><line class="cls-25" x1="1034.24" y1="234.59" x2="1034.24" y2="222.6"/><rect class="cls-27" x="1095.5" y="262.76" width="103.97" height="79.98" transform="matrix(1, 0, 0, 1, -0.72, 2.72)"/><polygon class="cls-23" points="1155.46 294.73 1147.43 291.94 1139.47 294.77 1139.39 262.77 1155.39 262.74 1155.46 294.73"/><rect class="cls-24" x="1098.72" y="318.42" width="29.83" height="20.69" transform="translate(2227.28 657.52) rotate(180)"/><line class="cls-25" x1="1104.08" y1="336.82" x2="1104.08" y2="320.28"/><line class="cls-25" x1="1114" y1="336.82" x2="1114" y2="320.28"/><line class="cls-25" x1="1107.2" y1="336.82" x2="1107.2" y2="320.28"/><line class="cls-25" x1="1118.27" y1="336.82" x2="1118.27" y2="320.28"/><line class="cls-25" x1="1111.53" y1="336.82" x2="1111.53" y2="320.28"/><line class="cls-25" x1="1123.92" y1="336.82" x2="1123.92" y2="320.28"/><line class="cls-25" x1="1126.27" y1="336.82" x2="1126.27" y2="320.28"/><line class="cls-25" x1="1100.77" y1="336.82" x2="1100.77" y2="320.28"/><line class="cls-25" x1="1115.71" y1="336.82" x2="1115.71" y2="320.28"/><rect class="cls-22" x="1211.26" y="433.05" width="79.95" height="61.5" transform="translate(-1.1 2.97) rotate(-0.14)"/><rect class="cls-24" x="1213.74" y="475.85" width="22.94" height="15.91" transform="translate(2450.41 967.61) rotate(180)"/><line class="cls-25" x1="1217.85" y1="490" x2="1217.85" y2="477.28"/><line class="cls-25" x1="1225.48" y1="490" x2="1225.48" y2="477.28"/><line class="cls-25" x1="1220.26" y1="490" x2="1220.26" y2="477.28"/><line class="cls-25" x1="1228.77" y1="490" x2="1228.77" y2="477.28"/><line class="cls-25" x1="1223.59" y1="490" x2="1223.59" y2="477.28"/><line class="cls-25" x1="1233.11" y1="490" x2="1233.11" y2="477.28"/><line class="cls-25" x1="1234.92" y1="490" x2="1234.92" y2="477.28"/><line class="cls-25" x1="1215.31" y1="490" x2="1215.31" y2="477.28"/><line class="cls-25" x1="1226.8" y1="490" x2="1226.8" y2="477.28"/><rect class="cls-27" x="1047.49" y="345.36" width="103.97" height="79.98" transform="matrix(1, 0, 0, 1, -0.91, 2.61)"/><polygon class="cls-23" points="1107.46 377.33 1099.42 374.54 1091.46 377.37 1091.39 345.37 1107.38 345.34 1107.46 377.33"/><rect class="cls-24" x="1050.72" y="401.02" width="29.83" height="20.69" transform="translate(2131.26 822.72) rotate(180)"/><line class="cls-25" x1="1056.07" y1="419.42" x2="1056.07" y2="402.88"/><line class="cls-25" x1="1065.99" y1="419.42" x2="1065.99" y2="402.88"/><line class="cls-25" x1="1059.2" y1="419.42" x2="1059.2" y2="402.88"/><line class="cls-25" x1="1070.26" y1="419.42" x2="1070.26" y2="402.88"/><line class="cls-25" x1="1063.53" y1="419.42" x2="1063.53" y2="402.88"/><line class="cls-25" x1="1075.92" y1="419.42" x2="1075.92" y2="402.88"/><line class="cls-25" x1="1078.26" y1="419.42" x2="1078.26" y2="402.88"/><line class="cls-25" x1="1052.76" y1="419.42" x2="1052.76" y2="402.88"/><line class="cls-25" x1="1067.71" y1="419.42" x2="1067.71" y2="402.88"/><rect class="cls-27" x="1003.02" y="159.69" width="103.97" height="79.98" transform="translate(-0.47 2.5) rotate(-0.14)"/><polygon class="cls-23" points="1062.98 191.66 1054.95 188.87 1046.99 191.69 1046.91 159.7 1062.91 159.66 1062.98 191.66"/><rect class="cls-24" x="1006.24" y="215.34" width="29.83" height="20.69" transform="translate(2042.31 451.37) rotate(180)"/><line class="cls-25" x1="1011.59" y1="233.75" x2="1011.59" y2="217.21"/><line class="cls-25" x1="1021.52" y1="233.75" x2="1021.52" y2="217.21"/><line class="cls-25" x1="1014.72" y1="233.75" x2="1014.72" y2="217.21"/><line class="cls-25" x1="1025.79" y1="233.75" x2="1025.79" y2="217.21"/><line class="cls-25" x1="1019.05" y1="233.75" x2="1019.05" y2="217.21"/><line class="cls-25" x1="1031.44" y1="233.75" x2="1031.44" y2="217.21"/><line class="cls-25" x1="1033.78" y1="233.75" x2="1033.78" y2="217.21"/><line class="cls-25" x1="1008.29" y1="233.75" x2="1008.29" y2="217.21"/><line class="cls-25" x1="1023.23" y1="233.75" x2="1023.23" y2="217.21"/><rect class="cls-27" x="1192.18" y="495.55" width="103.95" height="111.97" transform="translate(-1.41 3.18) rotate(-0.15)"/><polygon class="cls-23" points="1256.11 543.76 1248.17 540.97 1240.11 543.8 1240.04 495.79 1256.03 495.75 1256.11 543.76"/><rect class="cls-24" x="1200.85" y="580.87" width="29.83" height="20.69" transform="translate(55.83 -103.17) rotate(4.97)"/><line class="cls-25" x1="1223.84" y1="583.83" x2="1222.4" y2="600.3"/><line class="cls-25" x1="1223.92" y1="583.83" x2="1222.49" y2="600.31"/><line class="cls-28" x1="1211.87" y1="582.78" x2="1210.44" y2="599.26"/><line class="cls-25" x1="1218.2" y1="583.34" x2="1216.77" y2="599.81"/><line class="cls-28" x1="1216.79" y1="583.21" x2="1215.36" y2="599.69"/><line class="cls-28" x1="1225.23" y1="583.95" x2="1223.8" y2="600.42"/><line class="cls-28" x1="1208.1" y1="582.46" x2="1206.66" y2="598.93"/><line class="cls-25" x1="1203.89" y1="582.09" x2="1202.45" y2="598.57"/><line class="cls-25" x1="1229.29" y1="584.3" x2="1227.85" y2="600.78"/><line class="cls-25" x1="1214.4" y1="583" x2="1212.97" y2="599.48"/><line class="cls-25" x1="1221.05" y1="583.58" x2="1219.62" y2="600.06"/><rect class="cls-26" x="1132.88" y="157.49" width="103.95" height="80.8" transform="translate(-0.5 3.03) rotate(-0.15)"/><polygon class="cls-23" points="1196.81 174.53 1188.87 171.74 1180.81 174.57 1180.73 157.63 1196.73 157.59 1196.81 174.53"/><rect class="cls-24" x="1141.55" y="211.64" width="29.83" height="20.69" transform="translate(-2.97 16.09) rotate(-0.8)"/><line class="cls-25" x1="1163.75" y1="213.82" x2="1163.98" y2="230.36"/><line class="cls-25" x1="1163.84" y1="213.82" x2="1164.07" y2="230.36"/><line class="cls-28" x1="1151.74" y1="213.99" x2="1151.97" y2="230.53"/><line class="cls-25" x1="1158.09" y1="213.9" x2="1158.32" y2="230.44"/><line class="cls-28" x1="1156.68" y1="213.92" x2="1156.91" y2="230.46"/><line class="cls-28" x1="1165.15" y1="213.81" x2="1165.38" y2="230.34"/><line class="cls-28" x1="1147.95" y1="214.04" x2="1148.18" y2="230.58"/><line class="cls-25" x1="1143.73" y1="214.1" x2="1143.96" y2="230.64"/><line class="cls-25" x1="1169.22" y1="213.75" x2="1169.45" y2="230.29"/><line class="cls-25" x1="1154.28" y1="213.96" x2="1154.51" y2="230.49"/><line class="cls-25" x1="1160.95" y1="213.86" x2="1161.18" y2="230.4"/><rect class="cls-26" x="976.86" y="499.79" width="103.95" height="111.97" transform="matrix(1, 0, 0, 1, -1.42, 2.63)"/><polygon class="cls-23" points="1040.79 533.17 1032.84 530.38 1024.79 533.21 1024.71 500.03 1040.71 499.99 1040.79 533.17"/><rect class="cls-29" x="949.65" y="157.36" width="15.53" height="473.98"/><rect class="cls-29" x="949.65" y="608.75" width="483.42" height="9.18"/><rect class="cls-29" x="949.65" y="423.78" width="483.42" height="9.18"/><rect class="cls-29" x="949.65" y="238.82" width="483.42" height="9.18"/><path class="cls-30" d="M539.13,68.87h877a29,29,0,0,1,29,29v61.93a0,0,0,0,1,0,0H510.09a0,0,0,0,1,0,0V97.92A29,29,0,0,1,539.13,68.87Z"/><rect class="cls-31" x="510.09" y="159.84" width="935.08" height="14.72"/><rect class="cls-32" x="563.4" y="653.52" width="258.06" height="10.57"/><rect class="cls-32" x="563.4" y="629.55" width="258.06" height="10.57"/><rect class="cls-33" x="565.51" y="640.11" width="22.35" height="13.41"/><rect class="cls-33" x="681.25" y="640.11" width="22.35" height="13.41"/><rect class="cls-33" x="796.99" y="640.11" width="22.35" height="13.41"/><rect class="cls-32" x="569.91" y="617.68" width="258.06" height="10.57"/><rect class="cls-32" x="569.91" y="593.7" width="258.06" height="10.57"/><rect class="cls-33" x="572.03" y="604.27" width="22.35" height="13.41"/><rect class="cls-33" x="687.77" y="604.27" width="22.35" height="13.41"/><rect class="cls-33" x="803.51" y="604.27" width="22.35" height="13.41"/><rect x="875.44" y="478.51" width="7.7" height="186.15"/><path d="M878.86,517.38c-11.52,0-20.9-11.61-20.9-25.89,0-15.9,11.59-15.9,20.9-15.9s20.9,0,20.9,15.9C899.76,505.77,890.39,517.38,878.86,517.38Zm0-35.95c-11.14,0-15.05.83-15.05,10.06,0,11.05,6.76,20,15.05,20s15-9,15-20C893.91,482.26,890,481.43,878.86,481.43Z"/><path class="cls-34" d="M662.17,680.49a9.84,9.84,0,1,1-19.68,0"/><circle class="cls-34" cx="879.81" cy="671.36" r="19.04"/><circle cx="879.81" cy="671.36" r="6.61"/><rect class="cls-35" x="868.59" y="603.04" width="19.68" height="27.39"/><path class="cls-9" d="M871.91,593.63H891.7a1.71,1.71,0,0,1,1.71,1.71v40.22a1.71,1.71,0,0,1-1.71,1.71H868.59a1.71,1.71,0,0,1-1.71-1.71v-36.9A5,5,0,0,1,871.91,593.63Z"/><path class="cls-15" d="M874.39,593.63H867.2a3,3,0,0,0-2.24,1h0a6,6,0,0,0-.48.62,6.4,6.4,0,0,0-.4.68l-3,5.68-3,5.67-32.66,59.73H628.51a7.09,7.09,0,0,0-7.16,6.47,6.93,6.93,0,0,0,6.92,7.4H831.61a3.4,3.4,0,0,0,3-1.8L872.83,609a3.19,3.19,0,0,1,2.82-1.69h17.76v-12a1.67,1.67,0,0,0-1.67-1.67Z"/><rect class="cls-27" x="711.98" y="523.05" width="90.79" height="69.84" transform="translate(-1.32 1.8) rotate(-0.14)"/><polygon class="cls-23" points="764.34 550.97 757.32 548.53 750.37 551 750.3 523.07 764.27 523.04 764.34 550.97"/><rect class="cls-24" x="714.79" y="573.29" width="26.05" height="18.06"/><line class="cls-36" x1="727.5" y1="575.29" x2="727.5" y2="589.73"/><line class="cls-36" x1="734.28" y1="575.29" x2="734.28" y2="589.73"/><line class="cls-36" x1="737.64" y1="575.29" x2="737.64" y2="589.73"/><line class="cls-36" x1="733.44" y1="575.29" x2="733.44" y2="589.73"/><line class="cls-36" x1="722.15" y1="575.29" x2="722.15" y2="589.73"/><line class="cls-36" x1="720.48" y1="575.29" x2="720.48" y2="589.73"/><line class="cls-36" x1="718" y1="575.29" x2="718" y2="589.73"/><line class="cls-36" x1="716.79" y1="575.29" x2="716.79" y2="589.73"/><line class="cls-36" x1="739.05" y1="575.29" x2="739.05" y2="589.73"/><line class="cls-36" x1="726.01" y1="575.29" x2="726.01" y2="589.73"/><line class="cls-36" x1="731.83" y1="575.29" x2="731.83" y2="589.73"/><rect class="cls-27" x="602.29" y="511.66" width="105.58" height="81.22" transform="translate(-1.31 1.56) rotate(-0.14)"/><polygon class="cls-23" points="663.19 544.12 655.03 541.29 646.94 544.16 646.87 511.67 663.11 511.63 663.19 544.12"/><rect class="cls-24" x="607.24" y="572.4" width="26.94" height="18.69"/><line class="cls-37" x1="620.39" y1="574.47" x2="620.39" y2="589.41"/><line class="cls-37" x1="627.4" y1="574.47" x2="627.4" y2="589.41"/><line class="cls-37" x1="630.87" y1="574.47" x2="630.87" y2="589.41"/><line class="cls-37" x1="628.34" y1="574.47" x2="628.34" y2="589.41"/><line class="cls-37" x1="629.29" y1="574.47" x2="629.29" y2="589.41"/><line class="cls-37" x1="614.85" y1="574.47" x2="614.85" y2="589.41"/><line class="cls-37" x1="613.12" y1="574.47" x2="613.12" y2="589.41"/><line class="cls-37" x1="610.55" y1="574.47" x2="610.55" y2="589.41"/><line class="cls-37" x1="613.92" y1="574.47" x2="613.92" y2="589.41"/><line class="cls-38" x1="609.31" y1="574.47" x2="609.31" y2="589.41"/><line class="cls-37" x1="632.34" y1="574.47" x2="632.34" y2="589.41"/><line class="cls-37" x1="617.11" y1="574.47" x2="617.11" y2="589.41"/><line class="cls-38" x1="618.49" y1="574.47" x2="618.49" y2="589.41"/><line class="cls-38" x1="624.87" y1="574.47" x2="624.87" y2="589.41"/><line class="cls-37" x1="622.19" y1="574.47" x2="622.19" y2="589.41"/></g><g class="cls-39"><path class="cls-40" d="M-506.86,194.47l626.17,1.63a70.47,70.47,0,0,1,50.09,21L391,442h-897.9Z"/><polygon class="cls-12" points="192.9 240.94 -506.86 240.94 -506.86 226.52 178.67 226.52 192.9 240.94"/><path class="cls-40" d="M-506.86,442H391l109.23,56.93a22.19,22.19,0,0,1,11.93,19.66V655.29l-27.3,32.43H-506.86Z"/><path class="cls-41" d="M-643.07,442H254.84l109.23,56.93A22.2,22.2,0,0,1,376,518.54V655.29l-27.3,32.43H-643.07Z"/><path class="cls-41" d="M-643.07,217.37A24.37,24.37,0,0,1-618.57,193l601.68,3.12a70.5,70.5,0,0,1,50.09,21L254.84,442H-643.07Z"/><rect class="cls-12" x="-643.53" y="627.99" width="1155.73" height="27.31"/><polygon class="cls-40" points="56.68 240.94 -643.08 240.94 -643.08 226.52 42.47 226.52 56.68 240.94"/></g></g></svg>